<svg id="Group_370" data-name="Group 370" xmlns="http://www.w3.org/2000/svg" width="139.505" height="21.574" viewBox="0 0 139.505 21.574">
  <g id="Group_364" data-name="Group 364" transform="translate(46.347 0.283)">
    <path id="Path_232" data-name="Path 232" d="M290.6,116.33l-4.795,12.722h-.844l-4.55-11.8L276,129.052h-.872l-4.9-12.722h.872l4.467,11.578,4.332-11.578h1.035l4.441,11.55,4.358-11.55Z" transform="translate(-270.223 -108.839)" fill="#3eb398"/>
    <path id="Path_233" data-name="Path 233" d="M369.29,122.2h-11.8c.218,3.3,2.451,5.5,5.584,5.5a5.533,5.533,0,0,0,4.767-2.588l.708.436a6.535,6.535,0,1,1-5.475-10.3c3.6,0,6.211,2.588,6.211,6.593Zm-.817-.735c-.163-3.3-2.37-5.394-5.394-5.394a5.385,5.385,0,0,0-5.557,5.394Z" transform="translate(-334.866 -108.031)" fill="#3eb398"/>
    <path id="Path_234" data-name="Path 234" d="M430.75,100.475a6.647,6.647,0,0,1-12.449,3.242v3.133h-.818V86.636h.818V97.26a6.647,6.647,0,0,1,12.449,3.214Zm-.818,0a5.817,5.817,0,1,0-11.632.136,5.686,5.686,0,0,0,5.829,5.693A5.83,5.83,0,0,0,429.932,100.475Z" transform="translate(-380.331 -86.636)" fill="#3eb398"/>
  </g>
  <g id="Group_369" data-name="Group 369">
    <path id="Path_235" data-name="Path 235" d="M482.927,89.67H486.5v19.478h-3.569Z" transform="translate(-382.917 -88.622)" fill="#36475a"/>
    <path id="Path_236" data-name="Path 236" d="M509.037,92.767a2.264,2.264,0,1,1,2.262,2.153A2.217,2.217,0,0,1,509.037,92.767Zm.491,4.413H513.1v12.695h-3.569Z" transform="translate(-402.44 -89.349)" fill="#36475a"/>
    <path id="Path_237" data-name="Path 237" d="M547.072,109.148l-4.467-5.5v5.5h-3.569V89.67H542.6v10.652l3.215-3.868H550.4l-4.958,5.584,6.075,7.11Z" transform="translate(-424.871 -88.622)" fill="#36475a"/>
    <path id="Path_238" data-name="Path 238" d="M599.859,123.08H590.27a3.09,3.09,0,0,0,3.3,2.289,4.415,4.415,0,0,0,3.323-1.417l2.1,2.1a7.1,7.1,0,0,1-5.666,2.479,6.409,6.409,0,0,1-6.756-6.592,6.5,6.5,0,0,1,6.756-6.674,6.333,6.333,0,0,1,6.593,6.456C599.914,122.072,599.886,122.508,599.859,123.08Zm-3.514-2.315a2.7,2.7,0,0,0-2.97-2.4,2.929,2.929,0,0,0-3.106,2.4Z" transform="translate(-460.409 -107.757)" fill="#36475a"/>
    <g id="Group_368" data-name="Group 368">
      <g id="Group_365" data-name="Group 365">
        <path id="Path_239" data-name="Path 239" d="M95.393,97.937,86.515,89.06l3.545-3.545,5.333,5.333,5.333-5.333,3.545,3.545Z" transform="translate(-86.515 -85.515)" fill="#36475a"/>
      </g>
      <g id="Group_366" data-name="Group 366" transform="translate(22.099)">
        <path id="Path_240" data-name="Path 240" d="M182.987,97.937,174.11,89.06l3.545-3.545,5.333,5.333,5.333-5.333,3.545,3.545Z" transform="translate(-174.11 -85.515)" fill="#36475a"/>
      </g>
      <g id="Group_367" data-name="Group 367" transform="translate(11.05 9.152)">
        <path id="Path_241" data-name="Path 241" d="M144.525,134.213l-5.333-5.333-5.333,5.333-3.545-3.545,8.878-8.878,8.878,8.878Z" transform="translate(-130.314 -121.791)" fill="#36475a"/>
      </g>
    </g>
  </g>
</svg>
