<svg id="Group_3047" data-name="Group 3047" xmlns="http://www.w3.org/2000/svg" width="102.717" height="15.885" viewBox="0 0 102.717 15.885">
  <g id="Group_364" data-name="Group 364" transform="translate(34.125 0.208)">
    <path id="Path_232" data-name="Path 232" d="M285.226,116.33,281.7,125.7h-.622l-3.35-8.685-3.249,8.685h-.642l-3.61-9.367h.642l3.289,8.525,3.189-8.525h.762l3.27,8.5,3.209-8.5Z" transform="translate(-270.223 -110.814)" fill="#fff"/>
    <path id="Path_233" data-name="Path 233" d="M365.964,120.365h-8.685a4.138,4.138,0,0,0,7.622,2.146l.522.321a4.812,4.812,0,1,1-4.031-7.582,4.491,4.491,0,0,1,4.573,4.854Zm-.6-.541a3.88,3.88,0,0,0-3.971-3.971,3.965,3.965,0,0,0-4.092,3.971Z" transform="translate(-340.618 -109.935)" fill="#fff"/>
    <path id="Path_234" data-name="Path 234" d="M427.251,96.825a4.894,4.894,0,0,1-9.166,2.387v2.307h-.6V86.636h.6v7.823a4.894,4.894,0,0,1,9.166,2.367Zm-.6,0a4.283,4.283,0,1,0-8.564.1,4.187,4.187,0,0,0,4.292,4.192A4.293,4.293,0,0,0,426.649,96.825Z" transform="translate(-390.128 -86.636)" fill="#fff"/>
  </g>
  <g id="Group_369" data-name="Group 369">
    <path id="Path_235" data-name="Path 235" d="M482.927,89.67h2.628v14.341h-2.628Z" transform="translate(-409.29 -88.898)" fill="#fff"/>
    <path id="Path_236" data-name="Path 236" d="M509.037,92.206a1.667,1.667,0,1,1,1.665,1.585A1.633,1.633,0,0,1,509.037,92.206Zm.361,3.249h2.628V104.8H509.4Z" transform="translate(-430.55 -89.69)" fill="#fff"/>
    <path id="Path_237" data-name="Path 237" d="M544.953,104.011l-3.289-4.052v4.052h-2.628V89.67h2.628v7.843l2.367-2.848h3.37l-3.651,4.112,4.473,5.235Z" transform="translate(-454.977 -88.898)" fill="#fff"/>
    <path id="Path_238" data-name="Path 238" d="M596.353,121.018h-7.061a2.275,2.275,0,0,0,2.427,1.685,3.251,3.251,0,0,0,2.447-1.043l1.544,1.544a5.228,5.228,0,0,1-4.172,1.825,4.719,4.719,0,0,1-4.974-4.854,4.787,4.787,0,0,1,4.974-4.914,4.663,4.663,0,0,1,4.854,4.753C596.394,120.277,596.374,120.6,596.353,121.018Zm-2.587-1.7a1.985,1.985,0,0,0-2.186-1.765,2.157,2.157,0,0,0-2.287,1.765Z" transform="translate(-493.677 -109.736)" fill="#fff"/>
    <g id="Group_368" data-name="Group 368">
      <g id="Group_365" data-name="Group 365">
        <path id="Path_239" data-name="Path 239" d="M93.052,94.661l-6.537-6.537,2.61-2.61,3.927,3.927,3.927-3.927,2.61,2.61Z" transform="translate(-86.515 -85.515)" fill="#fff"/>
      </g>
      <g id="Group_366" data-name="Group 366" transform="translate(16.271)">
        <path id="Path_240" data-name="Path 240" d="M180.646,94.661l-6.537-6.537,2.61-2.61,3.927,3.927,3.927-3.927,2.61,2.61Z" transform="translate(-174.11 -85.515)" fill="#fff"/>
      </g>
      <g id="Group_367" data-name="Group 367" transform="translate(8.136 6.739)">
        <path id="Path_241" data-name="Path 241" d="M140.777,130.937l-3.927-3.927-3.927,3.927-2.61-2.61,6.537-6.537,6.537,6.537Z" transform="translate(-130.314 -121.791)" fill="#fff"/>
      </g>
    </g>
  </g>
</svg>
